<svg width="1716" height="1703" viewBox="0 0 1716 1703" fill="none" xmlns="http://www.w3.org/2000/svg">
<path fill-rule="evenodd" clip-rule="evenodd" d="M370.661 0.60382C361.617 2.55482 356.606 3.89182 355.661 4.60382C355.111 5.01882 352.861 5.93482 350.661 6.63982C338.944 10.3948 323.085 25.8948 316.129 40.3878C313.947 44.9358 312.161 49.3398 312.161 50.1738C312.161 51.0068 311.373 52.8908 310.411 54.3588C308.799 56.8178 308.641 61.9228 308.407 119.074C308.268 153.199 307.922 182.131 307.638 183.369L307.123 185.619L252.892 185.641C198.889 185.663 178.071 186.644 170.846 189.504C169.298 190.117 167.073 190.619 165.902 190.619C163.037 190.619 137.568 198.383 131.661 201.058C102.31 214.347 81.8958 227.797 62.8018 246.427C53.3368 255.661 37.2758 275.985 29.9358 288.014C25.7198 294.925 17.7878 310.849 16.6838 314.619C16.2818 315.994 15.4088 318.019 14.7448 319.119C13.0828 321.87 9.35678 332.427 8.17278 337.737C7.63578 340.147 6.47678 345.719 5.59778 350.119C4.71778 354.519 3.37778 360.369 2.61778 363.119C1.85878 365.869 0.981779 371.044 0.668779 374.619C-0.146221 383.937 -0.255221 1491.51 0.557779 1501.12C0.930779 1505.52 1.85478 1511.37 2.61278 1514.12C3.36978 1516.87 4.73778 1522.94 5.65278 1527.62C9.30178 1546.27 9.36878 1546.51 14.1078 1557.12C15.0908 1559.32 17.1628 1564.49 18.7138 1568.62C20.2648 1572.74 22.0378 1576.79 22.6538 1577.62C23.2698 1578.44 24.3128 1580.24 24.9708 1581.62C33.3498 1599.12 48.9968 1620.48 65.6498 1637.13C80.5528 1652.03 91.8178 1660.8 110.161 1671.76C122.865 1679.35 125.398 1680.63 135.661 1684.69C140.061 1686.42 144.111 1688.19 144.661 1688.61C146.228 1689.81 160.789 1694.62 162.829 1694.61C163.837 1694.61 166.686 1695.27 169.161 1696.07C171.636 1696.88 178.161 1698.27 183.661 1699.18C189.161 1700.08 195.686 1701.19 198.161 1701.66C200.636 1702.12 496.032 1702.53 854.597 1702.56C1413.95 1702.61 1507.39 1702.42 1512.6 1701.2C1515.93 1700.42 1522.94 1699.22 1528.16 1698.54C1533.39 1697.86 1539.4 1696.7 1541.54 1695.96C1543.67 1695.22 1546.41 1694.62 1547.62 1694.62C1550.03 1694.62 1567.74 1689.14 1569.55 1687.83C1570.16 1687.39 1573.36 1686.01 1576.66 1684.77C1584.06 1681.98 1596.46 1675.9 1600.92 1672.88C1602.75 1671.63 1604.57 1670.61 1604.95 1670.6C1605.34 1670.59 1607.91 1669 1610.66 1667.06C1613.41 1665.12 1617.91 1662.02 1620.66 1660.19C1631.65 1652.84 1652.58 1633.15 1662.89 1620.46C1670.26 1611.39 1681.91 1595.01 1683.76 1591.12C1685.34 1587.81 1686.68 1585.48 1689.36 1581.42C1690.34 1579.94 1693.17 1573.64 1695.66 1567.42C1698.15 1561.21 1700.7 1555.22 1701.34 1554.12C1703.86 1549.75 1706.64 1538.82 1711.64 1513.62C1712.34 1510.04 1713.54 1504.64 1714.29 1501.62C1716.35 1493.34 1716.34 378.569 1714.28 371.119C1713.02 366.561 1711.96 361.335 1709.11 345.619C1707.73 337.981 1703.14 323.443 1701.51 321.54C1700.77 320.672 1700.16 319.577 1700.16 319.106C1700.16 318.635 1699.33 316.421 1698.32 314.185C1697.31 311.949 1695.4 307.644 1694.07 304.619C1692.75 301.594 1690.05 296.644 1688.08 293.619C1686.12 290.594 1684.24 287.4 1683.92 286.52C1683.04 284.102 1667.75 264.057 1662.38 258.279C1641.44 235.735 1621.9 220.742 1598.3 209.104C1582.01 201.072 1578.56 199.55 1573.15 198.027C1570.41 197.253 1566.02 195.971 1563.41 195.178C1560.8 194.386 1555.74 192.991 1552.16 192.078C1548.59 191.166 1543.19 189.782 1540.16 189.004C1530.32 186.471 1509.76 185.619 1458.48 185.619C1418.6 185.619 1408 185.354 1407.61 184.346C1407.34 183.645 1406.98 155.858 1406.82 122.596C1406.55 69.5668 1406.31 61.2568 1404.8 55.1188C1400.83 38.8708 1392.35 25.3228 1379.91 15.3408C1374.35 10.8768 1371.56 9.30982 1361.66 5.10782C1354.13 1.91082 1344.39 0.17782 1334.16 0.21482C1308.04 0.30682 1283.1 14.5718 1271.39 36.1188C1268.48 41.4588 1264.16 53.3298 1264.15 55.9878C1264.15 57.1598 1263.48 59.4078 1262.65 60.9828C1261.38 63.4298 1261.16 72.5488 1261.15 123.483C1261.14 156.283 1260.77 183.686 1260.33 184.379C1259.23 186.108 457.59 186.22 455.508 184.492C454.408 183.579 454.158 172.899 454.144 126.247C454.129 75.4718 453.93 68.1738 452.355 60.6188C451.38 55.9438 450.038 51.1358 449.372 49.9348C448.706 48.7328 448.161 47.0998 448.161 46.3058C448.161 43.3078 442.616 32.8888 437.846 26.9248C430.624 17.8948 420.703 10.5578 409.661 6.07982C398.046 1.36982 379.306 -1.26118 370.661 0.60382ZM307.841 291.202C307.941 304.356 308.47 317.594 309.017 320.619C311.014 331.65 317.692 347.246 323.361 354.119C332.007 364.6 339.538 370.659 350.661 376.083C365.085 383.117 372.534 384.407 388.398 382.621C394.592 381.923 400.111 381.014 400.661 380.599C401.211 380.185 405.203 378.437 409.532 376.714C417.937 373.37 421.588 371.134 427.161 365.914C429.086 364.111 430.981 362.632 431.372 362.628C431.762 362.623 434.625 359.181 437.733 354.978C443.336 347.402 448.127 338.505 448.157 335.619C448.166 334.794 448.834 332.853 449.641 331.306C452.852 325.149 454.24 312.77 454.145 291.119C454.095 279.569 454.078 269.557 454.107 268.869C454.199 266.73 456.981 267.496 458.864 270.178C459.852 271.586 462.372 274.977 464.463 277.715C468.221 282.635 476.161 297.493 476.161 299.607C476.161 300.207 477.025 302.393 478.082 304.464C479.139 306.535 480.507 311.58 481.123 315.674C481.739 319.769 482.515 324.852 482.847 326.971C483.412 330.569 481.948 343.662 480.091 351.619C477.47 362.854 469.948 380.251 464.528 387.613C458.65 395.598 445.307 409.259 439.329 413.413C426.95 422.016 420.251 424.74 396.661 430.768C394.461 431.33 386.811 431.601 379.661 431.37C366.597 430.949 360.179 429.664 344.661 424.366C325.234 417.732 302.198 397.492 291.411 377.577C289.623 374.278 288.161 370.973 288.161 370.233C288.161 369.494 287.289 367.78 286.223 366.425C285.157 365.07 283.989 362.647 283.628 361.04C283.267 359.433 282.226 356.094 281.316 353.619C279.997 350.033 279.662 345.36 279.664 330.619C279.666 313.599 279.862 311.559 282.104 305.119C284.537 298.129 290.646 285.79 294.481 280.119C298.601 274.027 305.426 266.541 306.527 266.908C307.323 267.173 307.715 274.402 307.841 291.202ZM1261.16 292.342C1261.16 309.939 1261.48 315.446 1262.66 318.273C1263.49 320.248 1264.16 322.824 1264.16 323.999C1264.16 326.31 1269 340.589 1271.12 344.551C1273.45 348.894 1284.25 361.911 1288 364.887C1290 366.481 1291.87 368.108 1292.15 368.501C1293.58 370.508 1299.83 373.915 1309.21 377.797L1319.66 382.119H1335.71C1349.3 382.119 1352.16 381.852 1354.42 380.369C1355.89 379.407 1357.73 378.619 1358.51 378.619C1359.29 378.619 1363.54 376.813 1367.95 374.605C1374.43 371.361 1377.56 368.912 1384.24 361.855C1393.47 352.116 1397.67 346.07 1399.37 340.119C1400 337.919 1400.92 335.574 1401.43 334.909C1401.93 334.243 1403.26 330.418 1404.39 326.409C1406.15 320.149 1406.49 315.588 1406.79 294.119C1406.98 280.369 1407.14 268.782 1407.15 268.369C1407.18 266.401 1411.26 267.906 1412.57 270.369C1413.37 271.881 1415.89 275.34 1418.16 278.055C1422.5 283.241 1432.16 302.14 1432.16 305.439C1432.16 306.5 1432.84 309.307 1433.68 311.678C1434.52 314.049 1435.48 320.54 1435.82 326.102C1436.33 334.343 1436.03 338.244 1434.23 347.168C1433.01 353.191 1431.22 359.919 1430.25 362.119C1429.28 364.319 1427.41 368.594 1426.1 371.619C1418.41 389.375 1400.63 408.134 1380.76 419.452C1376.09 422.11 1367.29 425.329 1355.66 428.635C1346.41 431.265 1327.57 432.409 1319.66 430.821C1309.31 428.746 1297.64 425.302 1291.28 422.447C1277.88 416.434 1260.43 402.83 1253.54 393.018C1245.89 382.125 1244.42 379.731 1242.27 374.619C1240.99 371.594 1239.08 367.16 1238.02 364.766C1234.56 356.969 1232.89 347.472 1232.46 333.119C1232.08 320.514 1232.29 318.185 1234.56 309.739C1235.95 304.58 1237.78 299.595 1238.62 298.66C1239.47 297.726 1240.16 296.246 1240.16 295.372C1240.16 291.691 1247.63 279.54 1256.87 268.197C1258.39 266.325 1258.47 266.324 1259.8 268.138C1260.85 269.579 1261.16 275.065 1261.16 292.342ZM1597.59 518.19C1599.01 519.615 1599.16 564.631 1599.13 998.94C1599.11 1301.41 1598.74 1480.7 1598.13 1485.12C1596.17 1499.34 1595.25 1503.36 1591.45 1514.12C1584.32 1534.37 1568.91 1554.31 1552.07 1565.08C1548 1567.69 1543.46 1570.67 1541.98 1571.7C1537.66 1574.72 1528.73 1577.97 1512.66 1582.35C1507.14 1583.86 1455.6 1584.02 865.161 1584.32C461.039 1584.52 219.77 1584.29 213.145 1583.68C203.118 1582.77 195.318 1580.83 183.161 1576.25C176.609 1573.78 173.882 1572.26 160.911 1563.87C155.267 1560.22 142.11 1546.77 137.851 1540.29C127.325 1524.3 125.635 1520.87 121.986 1508.12C120.57 1503.17 118.805 1497.09 118.064 1494.62C116.945 1490.88 116.67 1408.11 116.437 1004.72C116.23 646.406 116.451 518.974 117.281 517.974C118.226 516.836 236.874 516.619 857.212 516.619C1527.52 516.619 1596.16 516.765 1597.59 518.19ZM840.661 593.322C837.911 594.153 831.408 596.923 826.209 599.476C816.253 604.366 806.276 612.87 800.814 621.119C799.357 623.319 797.014 626.837 795.606 628.937C794.198 631.036 791.671 636.211 789.99 640.437C788.309 644.662 786.473 648.69 785.91 649.387C785.346 650.085 784.531 652.335 784.097 654.387C783.662 656.44 782.625 660.819 781.791 664.119C778.34 677.773 777.143 684.8 776.086 697.619C773.154 733.18 773.186 738.652 776.58 781.619C777.34 791.244 778.457 800.386 779.061 801.934C779.666 803.482 780.177 806.857 780.196 809.434C780.215 812.011 780.908 817.719 781.736 822.119C782.565 826.519 783.641 832.369 784.128 835.119C784.615 837.869 785.933 843.269 787.058 847.119C788.183 850.969 789.116 856.289 789.132 858.942C789.156 862.969 788.878 863.711 787.445 863.435C786.502 863.254 785.182 861.983 784.512 860.612C778.113 847.516 774.328 840.416 771.72 836.619C770.021 834.144 767.299 829.419 765.671 826.119C764.044 822.819 761.351 818.24 759.687 815.944C758.023 813.648 754.982 809.148 752.931 805.944C749.567 800.692 742.962 791.389 733.161 778.097C727.251 770.083 711.452 751.188 703.661 742.817C697.758 736.474 671.838 713.075 668.192 710.797C666.8 709.928 662.961 707.138 659.661 704.597C656.361 702.056 651.636 698.946 649.161 697.685C646.686 696.424 641.443 693.657 637.509 691.536C630.529 687.773 623.192 685.02 608.346 680.593C602.2 678.761 599.147 678.469 589.249 678.766C582.362 678.972 576.885 679.598 576.064 680.271C575.292 680.905 572.798 681.921 570.521 682.53C554.567 686.795 541.116 702.708 534.521 725.119C532.217 732.946 532.274 758.041 534.61 764.749C535.447 767.153 536.138 769.923 536.146 770.905C536.154 771.888 538.194 778.888 540.679 786.461C545.054 799.794 557.484 826.397 562.097 832.299C563.309 833.85 566.362 838.269 568.881 842.119C573.46 849.118 574.986 851.061 587.161 865.396C605.925 887.49 633.894 912.404 664.578 934.355C677.339 943.485 682.645 949.68 676.411 948.17C673.076 947.362 661.797 943.118 657.661 941.115C653.961 939.323 631.942 932.122 627.161 931.141C625.236 930.746 622.678 929.801 621.476 929.041C620.275 928.28 617.575 927.236 615.476 926.719C613.378 926.203 608.961 925.033 605.661 924.121C602.361 923.208 596.061 921.569 591.661 920.48C587.261 919.39 581.411 917.772 578.661 916.885C575.911 915.998 570.961 914.867 567.661 914.373C564.361 913.878 559.186 913.076 556.161 912.591C535.496 909.277 492.13 909.017 475.661 912.109C461.666 914.736 458.56 915.465 455.071 916.944C453.195 917.739 448.961 919.376 445.661 920.582C442.361 921.787 437.812 923.639 435.551 924.696C433.291 925.754 431.163 926.619 430.822 926.619C430.482 926.619 426.548 929.546 422.081 933.123C408.576 943.938 402.784 951.548 398.111 964.619C396.128 970.165 395.789 973.027 395.799 984.119C395.816 1003.47 399.129 1013.24 410.445 1027.34C424.614 1044.99 443.609 1057.33 473.161 1068.08C477.286 1069.58 482.011 1071.41 483.661 1072.15C485.311 1072.9 489.361 1073.99 492.661 1074.59C495.961 1075.18 500.236 1076.08 502.161 1076.57C504.086 1077.07 509.036 1077.99 513.161 1078.62C517.286 1079.26 523.453 1080.41 526.867 1081.19C530.28 1081.98 535.455 1082.62 538.367 1082.62C541.278 1082.62 547.188 1083.29 551.499 1084.12C557.771 1085.32 568.696 1085.62 606.19 1085.62C637.657 1085.62 653.255 1085.96 653.688 1086.66C654.832 1088.51 652.215 1090.38 647.491 1091.09C644.958 1091.47 641.485 1092.37 639.773 1093.09C630.17 1097.12 625.787 1098.73 617.661 1101.2C612.711 1102.71 605.756 1105.24 602.204 1106.83C598.653 1108.42 592.803 1110.85 589.204 1112.23C585.606 1113.61 578.161 1116.93 572.661 1119.62C567.161 1122.31 560.636 1125.45 558.161 1126.6C555.686 1127.75 552.761 1129.24 551.661 1129.91C550.561 1130.59 546.286 1133.15 542.161 1135.61C535.695 1139.46 528.119 1144.44 515.646 1153.04C501.786 1162.59 478.076 1185.05 471.323 1195.02C469.796 1197.27 466.983 1201.37 465.071 1204.12C463.16 1206.87 460.338 1212.27 458.799 1216.12C457.261 1219.97 455.298 1224.69 454.436 1226.62C453.574 1228.54 452.278 1234.56 451.556 1239.98C450.455 1248.25 450.468 1251.34 451.633 1259.1C454.446 1277.84 466.176 1295.54 481.402 1304.02C485.11 1306.09 488.39 1308.18 488.692 1308.67C488.994 1309.16 492.935 1310.75 497.451 1312.21C504.544 1314.51 507.896 1314.94 522.088 1315.38C532.34 1315.7 541.737 1315.43 547.088 1314.68C557.385 1313.23 571.937 1309.95 574.543 1308.49C575.578 1307.91 580.528 1305.94 585.543 1304.12C604.386 1297.26 622.685 1287.5 648.09 1270.77C654.376 1266.63 660.901 1262.06 662.59 1260.6C664.279 1259.15 667.891 1256.45 670.618 1254.6C678.216 1249.45 701.964 1228.77 714.31 1216.56C720.395 1210.54 725.749 1205.62 726.208 1205.62C728.095 1205.62 728.251 1207.91 726.503 1209.94C725.475 1211.14 723.768 1213.69 722.709 1215.62C721.65 1217.54 719.181 1221.54 717.222 1224.49C715.264 1227.45 712.086 1232.65 710.161 1236.06C708.236 1239.47 705.569 1244.02 704.234 1246.19C700.736 1251.86 684.161 1284.85 684.161 1286.15C684.161 1286.75 682.623 1290.36 680.744 1294.18C677.247 1301.28 675.421 1306.34 670.654 1322.12C669.159 1327.07 667.298 1332.47 666.519 1334.13C665.072 1337.21 661.839 1351.34 660.116 1362.12C659.588 1365.42 658.595 1371.49 657.909 1375.62C657.177 1380.02 656.661 1392.21 656.661 1405.12C656.661 1424.87 656.894 1427.99 658.941 1435.62C662.547 1449.06 664.847 1453.84 672.546 1463.89C675.813 1468.16 685.914 1476.44 691.161 1479.16C698.869 1483.14 714.255 1485.98 724.161 1485.24C741.711 1483.94 759.8 1474.93 774.279 1460.3C784.96 1449.51 799.181 1431.04 803.678 1422.12C805.385 1418.73 806.815 1416.29 809.269 1412.55C810.197 1411.13 813.05 1405.06 815.61 1399.05C818.169 1393.04 820.919 1386.92 821.721 1385.45C823.507 1382.18 830.97 1360.52 832.079 1355.39C832.523 1353.33 833.352 1351.08 833.921 1350.39C834.911 1349.17 839.239 1332.54 840.755 1324.12C841.151 1321.92 842.079 1318.67 842.818 1316.9C843.557 1315.13 844.161 1312.3 844.161 1310.6C844.161 1308.91 844.769 1306.3 845.513 1304.82C846.256 1303.33 847.417 1298.52 848.093 1294.12C848.768 1289.72 849.716 1284.09 850.2 1281.62C850.684 1279.14 851.585 1273.07 852.202 1268.12C853.772 1255.53 855.094 1249.92 856.825 1248.48C859.023 1246.66 860.123 1249.01 860.167 1255.62C860.188 1258.64 860.883 1265.84 861.712 1271.62C862.542 1277.39 863.645 1285.72 864.163 1290.12C864.681 1294.52 865.578 1300.37 866.157 1303.12C866.736 1305.87 867.465 1309.92 867.777 1312.12C868.09 1314.32 869.174 1318.37 870.187 1321.12C871.896 1325.76 872.821 1329.21 876.627 1345.12C877.416 1348.42 879.224 1354.27 880.645 1358.12C882.065 1361.97 884.716 1369.39 886.536 1374.62C889.746 1383.84 891.889 1388.67 901.608 1408.62C917.693 1441.63 943.566 1470.22 965.71 1479.45C973.904 1482.87 984.168 1484.95 993.161 1485.03C1017.44 1485.23 1038.09 1472.08 1049 1449.46C1052.79 1441.62 1055.1 1431.78 1056.72 1416.62C1057.99 1404.71 1058.06 1399.98 1057.13 1390.12C1054.85 1366.03 1049.08 1334.91 1046.19 1331.12C1045.77 1330.57 1043.99 1325.05 1042.24 1318.85C1040.49 1312.66 1037.71 1304.58 1036.06 1300.9C1034.41 1297.22 1031.92 1291.26 1030.53 1287.66C1028.17 1281.57 1023.27 1271.06 1021.18 1267.62C1020.68 1266.79 1018.17 1261.84 1015.61 1256.62C1007.84 1240.77 1000.42 1227.51 995.041 1219.83C992.907 1216.78 991.161 1213.74 991.161 1213.08C991.161 1212.41 990.486 1211.3 989.661 1210.62C987.751 1209.03 987.718 1206.62 989.606 1206.62C990.4 1206.62 995.463 1211.03 1000.86 1216.42C1006.25 1221.82 1013.14 1228.2 1016.16 1230.61C1019.19 1233.01 1022.65 1235.98 1023.86 1237.2C1025.07 1238.42 1030.47 1242.92 1035.86 1247.19C1041.25 1251.47 1047.75 1256.67 1050.3 1258.76C1052.86 1260.85 1058.03 1264.45 1061.8 1266.77C1065.57 1269.08 1069.56 1271.74 1070.66 1272.66C1071.76 1273.59 1076.04 1276.31 1080.16 1278.71C1084.29 1281.12 1089.09 1284.04 1090.83 1285.2C1096.84 1289.22 1122.68 1301.34 1131.16 1304.12C1135.84 1305.65 1141.46 1307.7 1143.66 1308.67C1147.55 1310.39 1152.04 1311.31 1170.66 1314.17C1181.43 1315.82 1198.21 1316 1207.1 1314.56C1214.49 1313.36 1224.96 1310.03 1227.16 1308.19C1227.99 1307.5 1231.29 1305.45 1234.51 1303.64C1244.39 1298.1 1257.68 1281.87 1259.78 1272.8C1260.12 1271.32 1261.05 1269.08 1261.84 1267.81C1263.71 1264.81 1264.72 1246.73 1263.37 1240.12C1262.31 1234.9 1261.61 1232.7 1257.29 1221.12C1247.98 1196.14 1223.71 1169.41 1189.81 1146.79C1180.33 1140.47 1156.9 1126.62 1155.68 1126.62C1155.38 1126.62 1149.63 1123.99 1142.9 1120.78C1136.17 1117.56 1128.41 1114.13 1125.66 1113.15C1122.91 1112.17 1116.61 1109.65 1111.66 1107.56C1106.71 1105.46 1097.94 1102.18 1092.16 1100.26C1086.39 1098.35 1078.45 1095.67 1074.52 1094.31C1070.59 1092.95 1065.42 1091.53 1063.02 1091.15C1056.53 1090.14 1055.16 1089.62 1055.16 1088.16C1055.16 1087.43 1055.87 1086.56 1056.74 1086.23C1057.61 1085.89 1078.87 1085.62 1103.99 1085.62C1140.54 1085.62 1151.06 1085.32 1156.66 1084.14C1160.51 1083.32 1167.04 1082.65 1171.17 1082.64C1175.3 1082.63 1180.25 1082.16 1182.17 1081.59C1184.09 1081.02 1191.06 1079.71 1197.66 1078.67C1215.02 1075.93 1225.28 1073.72 1228.31 1072.07C1229.77 1071.27 1231.57 1070.6 1232.31 1070.58C1233.05 1070.57 1235.46 1069.68 1237.66 1068.62C1239.86 1067.56 1242.11 1066.67 1242.66 1066.65C1245.5 1066.54 1260.32 1059.65 1271.26 1053.35C1282.08 1047.12 1298.96 1032.72 1303.78 1025.62C1305.09 1023.69 1307.27 1020.54 1308.63 1018.62C1312.2 1013.56 1315.1 1006.92 1315.78 1002.21C1316.1 999.961 1317 995.9 1317.76 993.187C1319.58 986.76 1319.54 978.773 1317.66 974.273C1316.84 972.299 1316.16 969.53 1316.16 968.121C1316.16 964.186 1311.37 953.634 1307.31 948.619C1299.22 938.643 1287.05 928.76 1277.69 924.58C1270.28 921.267 1263.3 918.619 1261.98 918.613C1261.25 918.609 1259.31 917.902 1257.66 917.041C1256.01 916.18 1252.41 915.008 1249.66 914.437C1246.91 913.867 1242.64 912.987 1240.16 912.481C1229.56 910.317 1203.36 909.412 1183.47 910.523C1172.57 911.132 1161.19 912.025 1158.16 912.508C1155.14 912.991 1149.11 913.886 1144.77 914.496C1140.43 915.106 1136.38 916.019 1135.77 916.524C1135.16 917.03 1131.74 917.936 1128.16 918.537C1121.5 919.657 1116.48 920.849 1102.93 924.523C1098.68 925.676 1094.44 926.619 1093.5 926.619C1092.56 926.619 1089.96 927.46 1087.73 928.489C1083.13 930.6 1072.35 934.114 1067.31 935.141C1063.87 935.839 1048.87 942.051 1041.62 945.773C1037.08 948.106 1033.85 947.945 1033.35 945.36C1033.13 944.208 1033.96 943.273 1035.84 942.577C1037.39 942.001 1039.11 940.968 1039.66 940.283C1040.21 939.598 1043.57 937.03 1047.14 934.578C1052.78 930.69 1066.86 919.999 1071.12 916.363C1071.92 915.679 1075.09 913.094 1078.17 910.619C1088.71 902.132 1096.45 895.102 1109.56 882.119C1132.31 859.587 1149.63 837.265 1160.39 816.619C1163.11 811.394 1165.71 806.665 1166.17 806.111C1167.75 804.201 1172.92 788.859 1175.62 778.077C1176.31 775.305 1177.36 772.155 1177.95 771.077C1182.29 763.099 1182.12 727.304 1177.7 718.619C1177 717.244 1174.96 712.969 1173.18 709.119C1169.13 700.374 1158.1 688.702 1150.47 685.081C1147.62 683.727 1144.79 682.619 1144.19 682.619C1143.58 682.619 1141.89 681.831 1140.42 680.869C1138.15 679.385 1135.3 679.119 1121.61 679.119C1111.21 679.119 1104.97 679.517 1104.06 680.238C1103.29 680.854 1100.22 681.929 1097.24 682.628C1090.75 684.151 1082.32 687.464 1076.16 690.91C1073.69 692.295 1069.19 694.759 1066.16 696.386C1059.41 700.016 1047.01 708.714 1037.66 716.381C1028.04 724.266 1001.16 750.637 994.296 758.92C985.053 770.077 974.334 783.785 970.683 789.119C968.8 791.869 965.987 795.919 964.43 798.119C962.873 800.319 960.298 804.369 958.707 807.119C957.116 809.869 954.576 813.694 953.061 815.619C951.546 817.544 948.862 821.819 947.097 825.119C945.332 828.419 943.106 832.019 942.15 833.119C941.195 834.219 938.219 839.54 935.537 844.943C927.195 861.751 926.394 862.809 924.105 860.051C923.022 858.746 923.014 857.886 924.064 855.289C924.769 853.545 926.017 849.419 926.837 846.119C927.657 842.819 928.783 838.769 929.34 837.119C929.896 835.469 930.975 829.844 931.738 824.619C932.5 819.394 933.563 812.194 934.101 808.619C934.638 805.044 935.532 797.619 936.088 792.119C936.644 786.619 937.635 777.394 938.29 771.619C939.964 756.876 939.974 718.429 938.307 706.119C934.141 675.341 931.763 662.26 929.643 658.465C928.828 657.005 928.159 654.98 928.157 653.965C928.155 652.95 927.255 650.646 926.157 648.845C925.059 647.044 924.161 645.104 924.161 644.533C924.161 642.599 918.809 632.17 914.725 626.144C912.49 622.847 907.218 616.542 903.01 612.134C894.691 603.42 884.995 597.61 872.161 593.65C864.185 591.189 848.263 591.023 840.661 593.322ZM876.661 882.635C891.851 884.322 910.46 889.103 914.24 892.288C915.108 893.02 916.177 893.619 916.615 893.619C917.053 893.619 920.167 894.823 923.536 896.295C929.221 898.779 933.291 901.196 948.446 911.085C956.643 916.434 977.714 937.578 984.733 947.497C994.651 961.515 1008.16 989.787 1008.16 996.526C1008.16 997.534 1009.04 1001.12 1010.12 1004.5C1011.2 1007.87 1012.83 1017.91 1013.74 1026.8C1015.28 1041.85 1015.28 1044 1013.75 1057.74C1012.84 1065.85 1011.2 1075.56 1010.1 1079.31C1009 1083.05 1007.21 1089.1 1006.11 1092.75C1003.62 1101.05 992.416 1123.31 987.057 1130.62C984.838 1133.64 982.285 1137.24 981.386 1138.62C978.045 1143.72 963.348 1157.98 953.661 1165.51C945.003 1172.24 939.516 1175.89 929.844 1181.35C926.156 1183.43 918.346 1186.62 916.927 1186.62C916.188 1186.62 913.87 1187.49 911.775 1188.56C909.68 1189.63 906.547 1190.81 904.813 1191.18C903.08 1191.55 901.163 1192.25 900.555 1192.74C899.947 1193.22 894.997 1194.31 889.555 1195.16C865.179 1198.94 849.795 1199.55 837.869 1197.2C833.905 1196.42 828.1 1195.49 824.97 1195.13C821.84 1194.78 815.54 1193.12 810.97 1191.44C806.4 1189.77 800.411 1187.59 797.661 1186.6C789.278 1183.59 784.886 1181.53 779.661 1178.16C776.911 1176.38 772.861 1173.87 770.661 1172.57C759.687 1166.12 737.776 1145.97 731.473 1136.54C730.582 1135.21 728.157 1131.87 726.085 1129.12C717.554 1117.8 707.521 1094.84 704.236 1079.12C703.776 1076.92 702.915 1073.77 702.322 1072.12C699.084 1063.11 698.183 1035.78 700.6 1019.9C701.372 1014.83 702.291 1010.22 702.643 1009.65C702.995 1009.08 703.683 1006.48 704.174 1003.87C705.674 995.874 709.701 982.339 711.833 978.119C719.232 963.474 724.32 954.2 726.333 951.689C727.613 950.091 730.459 946.159 732.657 942.951C739.647 932.751 762.631 911.066 771.161 906.624C772.536 905.908 774.867 904.319 776.342 903.093C777.817 901.867 780.967 899.952 783.342 898.836C799.052 891.461 803.37 889.622 809.161 887.843C827.455 882.222 854.297 880.151 876.661 882.635ZM841.661 903.825C802.654 911.081 779.6 922.763 756.407 947.023C736.342 968.012 724.451 992.384 719.111 1023.47C718.038 1029.71 717.161 1038.86 717.161 1043.8C717.161 1053.39 719.812 1070.41 723.201 1082.57C735.328 1126.06 770.793 1162.72 814.661 1177.1C837.508 1184.59 868.47 1185.7 891.161 1179.85C933.678 1168.87 965.922 1142.5 984.679 1103.35C1017.82 1034.17 988.281 950.807 918.661 917.072C912.611 914.14 903.704 910.598 898.868 909.2C879.236 903.526 855.337 901.28 841.661 903.825Z" fill="black"/>
</svg>
