<svg width="620" height="631" viewBox="0 0 620 631" fill="none" xmlns="http://www.w3.org/2000/svg">
<path fill-rule="evenodd" clip-rule="evenodd" d="M145.86 0.501656C138.933 1.97866 133.161 6.22966 128.483 13.2977C124.303 19.6157 123.568 23.1117 122.952 39.6427L122.374 55.1427L98.8738 55.7597C69.1048 56.5417 65.2678 56.9557 51.6238 60.8587C39.6408 64.2867 24.1788 75.7727 15.1958 87.9197C11.1218 93.4307 3.87378 107.059 3.87378 109.21C3.87378 110.013 3.46378 111.452 2.96178 112.407C-0.132216 118.3 -0.226216 125.825 0.160784 335.643C0.440784 487.467 0.865785 547.676 1.68479 551.643C2.30879 554.668 3.10678 558.835 3.45778 560.902C3.80778 562.97 4.49479 564.909 4.98379 565.211C5.47379 565.514 5.87378 566.414 5.87378 567.213C5.87378 570.697 13.3428 584.214 20.4818 593.651C26.6448 601.798 37.6558 611.442 47.3738 617.207C57.5378 623.235 66.6258 626.507 81.6998 629.563C85.4198 630.317 152.384 630.632 303.7 630.607C525.848 630.571 535.3 630.423 547.874 626.789C549.799 626.233 552.499 625.485 553.874 625.127C567.513 621.576 589.145 606.5 598.438 594.07C600.053 591.91 601.937 589.548 602.624 588.822C603.312 588.095 603.874 587.114 603.874 586.643C603.874 586.172 604.442 585.191 605.135 584.464C607.228 582.272 612.632 570.566 614.748 563.643C618.152 552.503 618.752 549.428 619.431 539.643C620.214 528.354 620.062 134.29 619.271 124.143C618.971 120.293 618.361 116.018 617.916 114.643C617.47 113.268 616.507 110.118 615.774 107.643C612.933 98.0427 604.169 84.1017 596.217 76.5327C588.787 69.4607 582.441 65.5547 570.374 60.6267C562.665 57.4777 553.372 56.5257 525.124 55.9917L498.874 55.4957L498.839 43.3187C498.773 20.4607 494.389 10.2487 481.374 2.63566C478.015 0.670656 475.921 0.282656 468.305 0.218656C460.613 0.154656 458.531 0.505656 454.589 2.53266C447.573 6.14066 441.868 13.3677 439.596 21.5267C439.042 23.5157 438.316 31.8927 437.981 40.1427L437.374 55.1427L183.874 55.6507V42.6957C183.874 20.3667 179.29 9.76066 166.602 2.73966C162.425 0.427656 151.655 -0.734344 145.86 0.501656ZM121.78 99.0767C122.382 102.34 122.874 106.583 122.874 108.506C122.874 115.836 127.793 125.728 133.716 130.309C139.872 135.071 148.344 137.953 154.196 137.277C160.004 136.606 168.177 132.789 172.639 128.664C176.622 124.98 181.874 114.944 181.873 111.019C181.872 109.437 182.393 104.411 183.03 99.8497C184.376 90.2217 185.642 89.5847 189.558 96.5667C191.568 100.15 192.071 102.525 192.206 109.067C192.399 118.33 190.869 124.087 186.474 130.643C179.049 141.719 168.32 147.987 154.418 149.371C149.529 149.857 139.272 148.114 137.424 146.482C136.901 146.021 135.664 145.643 134.674 145.643C133.684 145.643 132.874 145.193 132.874 144.643C132.874 144.093 132.163 143.643 131.294 143.643C128.889 143.643 118.629 132.727 116.255 127.643C111.752 117.997 110.504 108.145 112.999 101.94C116.657 92.8397 118.795 89.7467 119.969 91.8547C120.363 92.5637 121.178 95.8127 121.78 99.0767ZM436.833 93.8927C437.336 95.1297 438.268 100.643 438.903 106.143C440.169 117.104 442.063 121.731 447.835 127.967C451.646 132.084 459.145 136.096 465.028 137.165C474.294 138.85 487.71 132.314 493.193 123.445C496.114 118.72 498.871 107.562 498.873 100.452C498.873 98.4217 499.324 96.4827 499.874 96.1427C500.424 95.8027 500.874 94.6137 500.874 93.5007C500.874 88.8817 504.908 93.7767 507.643 101.714C511.172 111.955 507.226 126.586 498.239 136.582C494.191 141.085 485.529 146.153 477.803 148.54C468.878 151.297 455.273 148.711 446.254 142.543C441.327 139.174 433.908 131.109 432.007 127.057C431.256 125.454 430.243 123.362 429.757 122.407C429.271 121.452 428.874 116.627 428.874 111.686C428.874 104.2 429.296 101.781 431.403 97.1727C434.148 91.1727 435.414 90.4077 436.833 93.8927ZM585.129 184.039C586.794 185.302 586.869 194.672 586.584 364.757C586.418 463.419 585.932 545.493 585.503 547.143C580.9 564.855 565.541 583.192 548.859 590.891C533.367 598.042 547.813 597.64 306.173 597.642C75.1508 597.643 83.9338 597.812 74.6428 593.177C72.9508 592.334 71.2158 591.643 70.7868 591.643C68.3588 591.643 58.3098 584.147 51.3738 577.162C45.7398 571.489 42.3808 567.077 40.0168 562.245C31.4448 544.726 31.9168 556.485 31.8938 359.722C31.8758 199.738 32.0018 186.159 33.5288 184.472C35.1248 182.708 44.9878 182.644 309.279 182.675C536.015 182.701 583.677 182.937 585.129 184.039ZM304.874 215.615C290.521 217.544 276.412 231.044 271.534 247.513C270.308 251.654 270.144 286.425 271.327 291.393C272.42 295.984 270.811 295.506 266.284 289.893C260.462 282.675 247.041 269.526 240.874 264.997C228.031 255.568 213.126 251.158 201.918 253.473C194.056 255.097 188.449 258.121 182.906 263.726C176.816 269.885 176.354 270.594 172.999 278.94C170.692 284.678 172.153 302.255 175.189 305.291C175.566 305.668 175.874 306.568 175.874 307.29C175.874 309.061 181.869 318.323 187.587 325.387C193.003 332.079 196.796 335.755 206.172 343.402C213.56 349.427 213.905 351.631 207.142 349.605C204.426 348.791 198.595 348.596 188.769 348.99C164.728 349.955 155.512 352.221 143.874 360.029C138.323 363.753 137.995 364.08 134.245 369.643C130.806 374.743 130.246 376.038 128.281 383.442C126.655 389.564 126.523 392.625 127.746 395.846C128.226 397.109 129.189 399.943 129.888 402.143C131.374 406.827 136.169 414.196 139.803 417.382C143.379 420.517 153.246 425.643 155.705 425.643C156.833 425.643 158.005 426.045 158.309 426.537C159.583 428.6 183.967 430.863 199.137 430.326C206.156 430.078 212.094 430.189 212.331 430.574C212.569 430.958 210.059 433.242 206.754 435.648C195.829 443.604 181.322 460.461 176.638 470.643C171.04 482.809 170.15 495.688 174.264 504.99C181.785 521.996 200.742 530.834 219.874 526.255C234.364 522.788 251.148 508.992 267.256 487.308C269.27 484.597 270.417 483.786 271.169 484.538C271.922 485.291 271.911 486.268 271.132 487.873C268.765 492.75 268.911 518.68 271.37 530.143C273.779 541.376 284.955 555.334 295.346 560.087C300.569 562.477 302.53 562.81 311.374 562.81C320.072 562.81 322.219 562.458 327.07 560.239C334.342 556.913 338.108 553.676 342.753 546.759C346.873 540.624 349.333 535.01 351.48 526.844C353.034 520.936 353.365 497.461 351.978 491.495C350.605 485.583 352.141 485.042 356.207 490.005C362.435 497.605 378.147 513.07 382.874 516.252C393.36 523.312 402.031 526.069 413.874 526.11C422.296 526.139 424.039 525.822 429.235 523.311C437.121 519.501 443.419 513.474 447.139 506.18C449.944 500.678 450.215 499.301 450.195 490.643C450.176 482.571 449.749 480.091 447.35 474.143C445.797 470.293 442.741 464.443 440.558 461.143C436.449 454.931 421.242 439.21 414.558 434.264C412.46 432.712 410.985 431.198 411.282 430.902C411.578 430.606 420.72 430.305 431.597 430.234C443.76 430.155 452.721 429.653 454.874 428.929C456.799 428.282 460.927 427.022 464.047 426.129C469.657 424.523 478.219 419.916 482.671 416.108C488.957 410.731 493.849 398.932 493.851 389.143C493.853 378.977 487.92 366.763 480.172 360.986C478.083 359.429 476.149 357.926 475.874 357.647C475.364 357.13 471.674 355.376 467.624 353.726C456.459 349.178 430.446 347.198 416.245 349.815C412.746 350.459 409.545 350.632 409.129 350.199C408.714 349.766 409.949 348.227 411.874 346.778C418.535 341.764 436.452 323.118 440.552 316.933C447.09 307.07 450.257 297.667 450.266 288.088C450.273 280.704 449.945 279.374 446.324 272.11C442.275 263.988 437.156 258.929 429.096 255.086C423.895 252.605 414.79 251.52 407.71 252.537C401.156 253.478 389.117 258.441 386.895 261.117C386.199 261.956 385.06 262.643 384.365 262.643C383.669 262.643 376.116 269.632 367.58 278.175L352.06 293.707L352.61 279.809C353.658 253.343 348.652 235.146 337.495 224.862C329.273 217.283 317.433 213.927 304.874 215.615ZM323.258 324.722C332.994 327.275 335.428 328.038 336.324 328.817C336.847 329.271 338.084 329.643 339.074 329.643C340.064 329.643 340.874 330.093 340.874 330.643C340.874 331.193 341.349 331.643 341.929 331.643C343.713 331.643 354.169 339.23 357.988 343.296C361.654 347.198 368.452 357.081 370.61 361.643C371.261 363.018 372.711 367.03 373.833 370.558C376.37 378.531 376.659 396.532 374.391 405.24C373.052 410.382 371.891 413.034 366.508 423.249C364.521 427.02 350.605 441.104 346.98 443.012C337.868 447.809 331.806 450.592 327.874 451.781C322.057 453.541 295.414 453.583 293.666 451.835C293.01 451.179 291.552 450.637 290.424 450.63C287.884 450.615 274.061 443.635 270.31 440.475C268.788 439.192 266.052 436.867 264.229 435.307C262.406 433.748 258.88 429.765 256.394 426.458C251.631 420.121 250.23 417.385 245.736 405.643C243.928 400.916 243.837 374.28 245.624 372.493C246.312 371.806 246.874 370.428 246.874 369.432C246.874 366.856 250.617 359.073 254.947 352.643C260.592 344.262 272.308 333.809 278.124 331.965C279.086 331.659 279.874 331.012 279.874 330.526C279.874 330.041 280.684 329.643 281.674 329.643C282.664 329.643 283.902 329.271 284.424 328.817C284.946 328.363 287.174 327.495 289.374 326.888C291.574 326.282 294.949 325.349 296.874 324.816C301.72 323.475 318.274 323.416 323.258 324.722Z" fill="black"/>
</svg>
